<svg viewBox="0 0 480 300" xmlns="http://www.w3.org/2000/svg" role="img" aria-labelledby="t3">
  <title id="t3">PixelQuest project preview: browser puzzle game grid</title>
  <rect width="480" height="300" fill="#F4F2ED"/>
  <g stroke="#3457D5" stroke-width="0.5" opacity="0.2">
    <path d="M0 0h480M0 60h480M0 120h480M0 180h480M0 240h480M0 300h480"/>
  </g>
  <g>
    <rect x="140" y="40" width="200" height="220" rx="6" fill="#1B1F2A"/>
    <g>
      <rect x="156" y="56" width="40" height="40" fill="#3457D5"/>
      <rect x="200" y="56" width="40" height="40" fill="#E8A33D"/>
      <rect x="244" y="56" width="40" height="40" fill="#F4F2ED"/>
      <rect x="288" y="56" width="36" height="40" fill="#3457D5"/>

      <rect x="156" y="100" width="40" height="40" fill="#F4F2ED"/>
      <rect x="200" y="100" width="40" height="40" fill="#3457D5"/>
      <rect x="244" y="100" width="40" height="40" fill="#E8A33D"/>
      <rect x="288" y="100" width="36" height="40" fill="#F4F2ED"/>

      <rect x="156" y="144" width="40" height="40" fill="#E8A33D"/>
      <rect x="200" y="144" width="40" height="40" fill="#F4F2ED"/>
      <rect x="244" y="144" width="40" height="40" fill="#3457D5"/>
      <rect x="288" y="144" width="36" height="40" fill="#E8A33D"/>
    </g>
    <rect x="156" y="200" width="168" height="14" rx="3" fill="#E8A33D"/>
    <rect x="156" y="224" width="90" height="10" rx="2" fill="#F4F2ED" opacity="0.85"/>
  </g>
</svg>
